<?xml version="1.0" encoding="utf-8"?>
<!-- Generator: Adobe Illustrator 24.3.0, SVG Export Plug-In . SVG Version: 6.00 Build 0)  -->
<svg version="1.1" id="Layer_1" xmlns="http://www.w3.org/2000/svg" xmlns:xlink="http://www.w3.org/1999/xlink" x="0px" y="0px"
	 viewBox="0 0 480 472" style="enable-background:new 0 0 480 472;" xml:space="preserve">
<style type="text/css">
	.st0{display:none;fill:#CBEBF7;}
	.st1{fill:#555244;}
	.st2{display:none;}
	.st3{display:inline;}
	.st4{fill:none;stroke:#555244;stroke-width:7;stroke-miterlimit:10;}
	.st5{fill:none;stroke:#555244;stroke-width:3;stroke-miterlimit:10;}
	.st6{fill:none;stroke:#555244;stroke-width:2;stroke-miterlimit:10;}
</style>
<rect x="-333.5" y="-118" class="st0" width="1095.8" height="780"/>
<g>
	<g>
		<path class="st1" d="M242.3,360c-63.5,0-115.2-51.7-115.2-115.2s51.7-115.2,115.2-115.2c63.6,0,115.2,51.7,115.2,115.2
			C357.6,308.3,305.9,360,242.3,360z M242.3,149.6c-52.5,0-95.1,42.7-95.1,95.1s42.7,95.1,95.1,95.1c52.5,0,95.1-42.7,95.1-95.1
			S294.8,149.6,242.3,149.6z"/>
	</g>
	<g>
		<g>
			<path class="st1" d="M152.6,144.3c2.9,3.3,2.6,8.4-0.7,11.3l0,0c-3.4,2.9-8.4,2.6-11.3-0.7L81,86.8c-2.9-3.4-2.6-8.4,0.7-11.3
				l0,0c3.3-2.9,8.4-2.6,11.3,0.7L152.6,144.3z"/>
		</g>
	</g>
	<g>
		<g>
			<path class="st1" d="M250.7,107.5c0,4.4-3.5,8-7.9,8.1l0,0c-4.4,0-8-3.5-8.1-8l-0.6-90.4c0-4.4,3.5-8,7.9-8.1l0,0
				c4.4,0,8,3.5,8.1,8L250.7,107.5z"/>
		</g>
	</g>
	<g>
		<g>
			<path class="st1" d="M105.5,222.8c4.4,0.4,7.7,4.2,7.3,8.6l0,0c-0.4,4.4-4.2,7.7-8.6,7.3l-90.1-7.3c-4.4-0.4-7.7-4.2-7.3-8.6l0,0
				c0.3-4.4,4.2-7.7,8.6-7.4L105.5,222.8z"/>
		</g>
	</g>
	<g>
		<g>
			<path class="st1" d="M120.1,308.5c3.8-2.4,8.7-1.2,11,2.5l0,0c2.4,3.7,1.3,8.7-2.5,11.1l-76.5,48.3c-3.8,2.4-8.7,1.3-11-2.5l0,0
				c-2.4-3.7-1.3-8.7,2.5-11L120.1,308.5z"/>
		</g>
	</g>
	<g>
		<g>
			<path class="st1" d="M188.4,368.1c1.6-4.2,6.2-6.2,10.3-4.7l0,0c4.1,1.6,6.2,6.2,4.7,10.3l-31.9,84.6c-1.6,4.1-6.2,6.2-10.3,4.7
				l0,0c-4.2-1.6-6.3-6.2-4.7-10.3L188.4,368.1z"/>
		</g>
	</g>
	<g>
		<g>
			<path class="st1" d="M361.1,325.4c-3.9-2.1-5.4-6.9-3.4-10.8l0,0c2-3.9,6.9-5.4,10.8-3.4l80.1,42.1c3.9,2.1,5.4,6.9,3.3,10.8l0,0
				c-2,4-6.9,5.4-10.8,3.4L361.1,325.4z"/>
		</g>
	</g>
	<g>
		<g>
			<path class="st1" d="M379.4,227.8c-4.4,0.5-8.4-2.6-8.9-7l0,0c-0.5-4.4,2.6-8.4,7-8.9l89.8-10.5c4.4-0.5,8.4,2.6,8.9,7l0,0
				c0.5,4.4-2.6,8.4-7,8.9L379.4,227.8z"/>
		</g>
	</g>
	<g>
		<g>
			<path class="st1" d="M320.5,453.2c1.5,4.2-0.7,8.7-4.9,10.2l0,0c-4.2,1.4-8.7-0.7-10.2-4.9l-30.1-85.3c-1.5-4.2,0.7-8.7,4.9-10.2
				l0,0c4.2-1.5,8.7,0.7,10.2,4.9L320.5,453.2z"/>
		</g>
	</g>
	<g>
		<g>
			<path class="st1" d="M335.3,146.6c-2.7,3.5-7.7,4.1-11.2,1.4l0,0c-3.5-2.7-4.1-7.7-1.4-11.2l55.7-71.3c2.7-3.5,7.8-4.1,11.2-1.4
				l0,0c3.5,2.7,4.1,7.8,1.4,11.3L335.3,146.6z"/>
		</g>
	</g>
</g>
<g class="st2">
	<g class="st3">
		<g>
			<path class="st4" d="M619.7,239.6c0.1-0.9,0.1-1.8,0.1-2.7c0-16.8-13.6-30.4-30.4-30.4c-5.7,0-11.2,1.6-16,4.6
				c-3-17.3-18.8-30.3-37.4-29.2c-17.7,0.9-31.7,13.8-34,30.4c-3.2-1.1-6.5-1.7-9.8-1.7c-16.8,0-30.4,13.6-30.4,30.4
				c0,0.4,0,0.7,0,1.1c-8.5,2.3-20.7,7.2-20.7,24.6c0,12.9,10.7,24,25.3,24.7l152.7-0.7c11.3-3.7,19.7-15.4,19.1-28
				C637.8,251.8,630.3,242.8,619.7,239.6z"/>
		</g>
	</g>
	<g class="st3">
		<g>
			<path class="st5" d="M497.5,328.8L497.5,328.8c-10.1-17.9-10.9-42.8-11.5-34.1c-1.5,22.6-10.4,34.1-10.4,34.1l0,0
				c-0.7,1.4-1.2,3-1.2,4.6c0,6,5.4,10.9,12.1,10.9c6.7,0,13.1-4.3,13.1-10.3C499.7,332.4,498.2,330.2,497.5,328.8z"/>
		</g>
	</g>
	<g class="st3">
		<g>
			<path class="st6" d="M518.1,361.7L518.1,361.7c-4.4-9.2-4.8-21.9-5-17.4c-0.6,11.6-4.5,17.4-4.5,17.4l0,0
				c-0.3,0.7-0.5,1.5-0.5,2.4c0,3.1,2.4,5.5,5.3,5.5c2.9,0,5.7-2.2,5.7-5.2C519.1,363.5,518.4,362.4,518.1,361.7z"/>
		</g>
	</g>
	<g class="st3">
		<g>
			<path class="st5" d="M540.2,308.6L540.2,308.6c-7.4-13.2-7.2-22.6-8.8-16.4c-2.4,9.2-7.4,16.4-7.4,16.4l0,0
				c-0.5,1-0.9,2.2-0.9,3.4c0,4.4,4,8,8.9,8s9.7-3.1,9.7-7.6C541.8,311.2,540.7,309.6,540.2,308.6z"/>
		</g>
	</g>
	<g class="st3">
		<g>
			<path class="st5" d="M558.7,348.8L558.7,348.8c10.1-17.9,10.9-42.8,11.5-34.1c1.5,22.6,10.4,34.1,10.4,34.1l0,0
				c0.7,1.4,1.2,3,1.2,4.6c0,6-5.4,10.9-12.1,10.9c-6.7,0-13.1-4.3-13.1-10.3C556.6,352.4,558,350.2,558.7,348.8z"/>
		</g>
	</g>
	<g class="st3">
		<g>
			<path class="st6" d="M538.1,381.7L538.1,381.7c4.4-9.2,4.8-21.9,5-17.4c0.6,11.6,4.5,17.4,4.5,17.4l0,0c0.3,0.7,0.5,1.5,0.5,2.4
				c0,3.1-2.4,5.5-5.3,5.5c-2.9,0-5.7-2.2-5.7-5.2C537.2,383.5,537.8,382.4,538.1,381.7z"/>
		</g>
	</g>
	<g class="st3">
		<g>
			<path class="st5" d="M596,318.6L596,318.6c7.4-13.2,7.2-22.6,8.8-16.4c2.4,9.2,7.4,16.4,7.4,16.4l0,0c0.5,1,0.9,2.2,0.9,3.4
				c0,4.4-4,8-8.9,8s-9.7-3.1-9.7-7.6C594.4,321.2,595.5,319.6,596,318.6z"/>
		</g>
	</g>
</g>
<g class="st2">
	<g class="st3">
		<path class="st1" d="M-169.5,224.8c1.3,1.5,3.6,1.7,5.1,0.3c1.5-1.3,1.6-3.6,0.3-5.1l-26.6-30.4c-1.3-1.5-3.6-1.6-5.1-0.3
			c-1.5,1.3-1.6,3.6-0.3,5L-169.5,224.8z"/>
	</g>
	<g class="st3">
		<path class="st1" d="M-123.8,207.2c2,0,3.6-1.6,3.6-3.6l-0.3-40.5c0-2-1.6-3.6-3.6-3.6s-3.6,1.6-3.6,3.6l0.3,40.5
			C-127.4,205.6-125.8,207.2-123.8,207.2z"/>
	</g>
	<g class="st3">
		<path class="st1" d="M-31.7,313.6l-35.8-18.8c-1.8-0.9-3.9-0.2-4.8,1.5s-0.3,3.9,1.5,4.8l35.8,18.8c1.8,0.9,3.9,0.3,4.8-1.5
			C-29.3,316.7-29.9,314.5-31.7,313.6z"/>
	</g>
	<g class="st3">
		<path class="st1" d="M-23.3,245.6l-40.2,4.7c-2,0.2-3.4,2-3.1,4c0.2,2,2,3.4,4,3.1l40.2-4.7c2-0.2,3.4-2,3.2-4
			C-19.5,246.8-21.3,245.4-23.3,245.6z"/>
	</g>
	<g class="st3">
		<path class="st1" d="M-82.4,221.1l24.9-31.9c1.2-1.6,1-3.8-0.6-5s-3.8-0.9-5,0.6L-88,216.7c-1.2,1.6-0.9,3.8,0.6,5
			C-85.9,222.9-83.6,222.6-82.4,221.1z"/>
	</g>
	<g class="st3">
		<path class="st1" d="M-74.4,265c0-28-22.8-50.7-50.7-50.7c-22.8,0-42.1,15.1-48.5,35.8c0.3,0,0.7-0.1,1-0.1h1.7c0.1,0,0.2,0,0.3,0
			h-0.8c-0.3,0-0.7,0.1-1,0.1c-5.5,0.4-10.6,2.2-15,4.9l-38.1-3.1c-2-0.1-3.7,1.3-3.9,3.3c-0.2,2,1.3,3.7,3.3,3.9l31.1,2.5
			c-3.6,4.3-6.2,9.5-7.1,15.3c-2.7-0.9-5.5-1.3-8.3-1.3c-15.2,0-27.6,12.4-27.6,27.6c0,0.2,0,0.4,0,0.6c-7.7,2.1-18.4,6.7-18.4,22.3
			c0,12.5,11.1,22.7,24.7,22.7h1.3c8.3-0.4,43,0,43,0v-0.6c0.1,0,0.1,0,0.2,0v0.6v-0.6c4.8,0.6,15.6,0.7,40.1,0.7
			c0,0,18.7,0.3,32.2,0.3c5.1,0,9.5,0,11.9-0.2c6.1-0.3,11.9-3.1,16.3-8c4.7-5.2,7.2-12,6.9-18.6c-0.4-7.8-4.9-14.6-11.6-18.6
			c-0.2-0.1-0.5-0.2-0.7-0.4C-81.3,294.1-74.4,280.4-74.4,265z M-87.1,322.7c0.2,4.7-1.6,9.6-5,13.3c-3.1,3.4-7,5.4-11.2,5.6
			c-8.8,0.4-43.6-0.2-43.7-0.2c-15.5,0-38.9-0.1-40.2-0.1l-0.1,1.6v-1.6c0,0-16.1-0.2-29-0.2c-6.2,0-11.7,0-14.4,0.2h-0.9
			c-9.6,0-17.4-6.9-17.4-15.4c0-10.2,5.3-13.3,15.8-15.9l2.7-1.1l0.2-2.7l-0.1-1.4c-0.1-0.6-0.2-1.2-0.2-1.8
			c0-11.2,9.1-20.3,20.3-20.3c3.4,0,6.7,0.9,9.8,2.7l5.6,3.1l-0.1-6.4c-0.1-8.2,3.9-15.5,10.2-20c1.1-0.2,2-0.8,2.6-1.7
			c2.5-1.4,5.3-2.4,8.3-2.9c1-0.2,2-0.3,3-0.3h1.3c1.1,0,2.1,0.1,3.1,0.2c12,1.4,21.5,11,22.1,23c0,0.4,0,0.9-0.1,2.2l-0.3,9.5
			l6.6-6.8c3.8-3.9,9-6.1,14.4-6.1c11.2,0,20.3,9.1,20.3,20.3c0,1.4-0.1,2.7-0.4,4v0.1l-0.7,3.7l3.7,0.7c1,0.2,1.9,0.4,2.8,0.7
			C-91.9,310.9-87.5,316.3-87.1,322.7z M-96.5,297.5c-1.1-14.2-12.9-25.5-27.5-25.5c-4.9,0-9.7,1.3-13.9,3.7
			c-2.6-13.2-13.4-23.3-27-25.4c-0.4-0.1-0.7,0-1.1-0.1c6.1-16.7,22-28.6,40.7-28.6c23.9,0,43.4,19.5,43.4,43.4
			C-81.7,277.9-87.5,289.5-96.5,297.5z"/>
	</g>
</g>
<g class="st2">
	<g class="st3">
		<g>
			<path class="st1" d="M252,237.6c-9,0-16.3-7.3-16.3-16.3S243,205,252,205s16.3,7.3,16.3,16.3C268.3,230.3,261,237.6,252,237.6z
				 M252,207.9c-7.4,0-13.4,6-13.4,13.4s6,13.4,13.4,13.4s13.4-6,13.4-13.4S259.4,207.9,252,207.9z"/>
		</g>
		<g>
			<g>
				<path class="st1" d="M239.3,207.2c0.4,0.5,0.4,1.2-0.1,1.6l0,0c-0.5,0.4-1.2,0.4-1.6-0.1l-8.4-9.6c-0.4-0.5-0.4-1.2,0.1-1.6l0,0
					c0.5-0.4,1.2-0.4,1.6,0.1L239.3,207.2z"/>
			</g>
		</g>
		<g>
			<g>
				<path class="st1" d="M253.2,202c0,0.6-0.5,1.1-1.1,1.1l0,0c-0.6,0-1.1-0.5-1.1-1.1l-0.1-12.8c0-0.6,0.5-1.1,1.1-1.1l0,0
					c0.6,0,1.1,0.5,1.1,1.1L253.2,202z"/>
			</g>
		</g>
		<g>
			<g>
				<path class="st1" d="M232.7,218.3c0.6,0.1,1.1,0.6,1,1.2l0,0c-0.1,0.6-0.6,1.1-1.2,1l-12.7-1c-0.6-0.1-1.1-0.6-1-1.2l0,0
					c0-0.6,0.6-1.1,1.2-1L232.7,218.3z"/>
			</g>
		</g>
		<g>
			<g>
				<path class="st1" d="M234.7,230.4c0.5-0.3,1.2-0.2,1.6,0.4l0,0c0.3,0.5,0.2,1.2-0.4,1.6l-8,5.1c-0.5,0.3-1.2,0.2-1.6-0.3l0,0
					c-0.3-0.5-0.2-1.2,0.4-1.6L234.7,230.4z"/>
			</g>
		</g>
		<g>
			<g>
				<path class="st1" d="M268.8,232.8c-0.6-0.3-0.8-1-0.5-1.5l0,0c0.3-0.6,1-0.8,1.5-0.5l11.3,5.9c0.6,0.3,0.8,1,0.5,1.5l0,0
					c-0.3,0.6-1,0.8-1.5,0.5L268.8,232.8z"/>
			</g>
		</g>
		<g>
			<g>
				<path class="st1" d="M271.4,219c-0.6,0.1-1.2-0.4-1.3-1l0,0c-0.1-0.6,0.4-1.2,1-1.3l12.7-1.5c0.6-0.1,1.2,0.4,1.3,1l0,0
					c0.1,0.6-0.4,1.2-1,1.3L271.4,219z"/>
			</g>
		</g>
		<g>
			<g>
				<path class="st1" d="M265.1,207.5c-0.4,0.5-1.1,0.6-1.6,0.2l0,0c-0.5-0.4-0.6-1.1-0.2-1.6l7.9-10.1c0.4-0.5,1.1-0.6,1.6-0.2l0,0
					c0.5,0.4,0.6,1.1,0.2,1.6L265.1,207.5z"/>
			</g>
		</g>
	</g>
	<g class="st3">
		<g>
			<path class="st4" d="M276.2,267.6c0.1-0.9,0.1-1.8,0.1-2.7c0-16.8-13.6-30.4-30.4-30.4c-5.7,0-11.2,1.6-16,4.6
				c-3-17.3-18.8-30.3-37.4-29.2c-17.7,0.9-31.7,13.8-34,30.4c-3.2-1.1-6.5-1.7-9.8-1.7c-16.8,0-30.4,13.6-30.4,30.4
				c0,0.4,0,0.7,0,1.1c-8.5,2.3-20.7,7.2-20.7,24.6c0,12.9,10.7,24,25.3,24.7l152.7-0.7c11.3-3.7,19.7-15.4,19.1-28
				C294.3,279.9,286.8,270.8,276.2,267.6z"/>
		</g>
	</g>
</g>
</svg>
