<?xml version="1.0" encoding="utf-8"?>
<!-- Generator: Adobe Illustrator 24.3.0, SVG Export Plug-In . SVG Version: 6.00 Build 0)  -->
<svg version="1.1" id="Layer_1" xmlns="http://www.w3.org/2000/svg" xmlns:xlink="http://www.w3.org/1999/xlink" x="0px" y="0px"
	 viewBox="0 0 645.8 543.9" style="enable-background:new 0 0 645.8 543.9;" xml:space="preserve">
<style type="text/css">
	.st0{display:none;fill:#CBEBF7;}
	.st1{display:none;}
	.st2{display:inline;}
	.st3{fill:#555244;}
	.st4{fill:none;stroke:#555244;stroke-width:7;stroke-miterlimit:10;}
	.st5{fill:none;stroke:#555244;stroke-width:3;stroke-miterlimit:10;}
	.st6{fill:none;stroke:#555244;stroke-width:2;stroke-miterlimit:10;}
</style>
<rect x="-234.6" y="-65.2" class="st0" width="1095.8" height="780"/>
<g class="st1">
	<g class="st2">
		<path class="st3" d="M341.2,412.8c-63.5,0-115.2-51.7-115.2-115.2c0-63.5,51.7-115.2,115.2-115.2c63.6,0,115.2,51.7,115.2,115.2
			C456.5,361.1,404.8,412.8,341.2,412.8z M341.2,202.4c-52.5,0-95.1,42.7-95.1,95.1s42.7,95.1,95.1,95.1c52.5,0,95.1-42.7,95.1-95.1
			S393.7,202.4,341.2,202.4z"/>
	</g>
	<g class="st2">
		<g>
			<path class="st3" d="M251.5,197.1c2.9,3.3,2.6,8.4-0.7,11.3l0,0c-3.4,2.9-8.4,2.6-11.3-0.7l-59.6-68.1c-2.9-3.4-2.6-8.4,0.7-11.3
				l0,0c3.3-2.9,8.4-2.6,11.3,0.7L251.5,197.1z"/>
		</g>
	</g>
	<g class="st2">
		<g>
			<path class="st3" d="M349.6,160.3c0,4.4-3.5,8-7.9,8.1l0,0c-4.4,0-8-3.5-8.1-8L332.9,70c0-4.4,3.5-8,7.9-8.1l0,0
				c4.4,0,8,3.5,8.1,8L349.6,160.3z"/>
		</g>
	</g>
	<g class="st2">
		<g>
			<path class="st3" d="M204.4,275.6c4.4,0.4,7.7,4.2,7.3,8.6l0,0c-0.4,4.4-4.2,7.7-8.6,7.3l-90.1-7.3c-4.4-0.4-7.7-4.2-7.3-8.6l0,0
				c0.3-4.4,4.2-7.7,8.6-7.4L204.4,275.6z"/>
		</g>
	</g>
	<g class="st2">
		<g>
			<path class="st3" d="M219,361.3c3.8-2.4,8.7-1.2,11,2.5l0,0c2.4,3.7,1.3,8.7-2.5,11.1L151,423.1c-3.8,2.4-8.7,1.3-11-2.5l0,0
				c-2.4-3.7-1.3-8.7,2.5-11L219,361.3z"/>
		</g>
	</g>
	<g class="st2">
		<g>
			<path class="st3" d="M287.3,420.9c1.6-4.2,6.2-6.2,10.3-4.7l0,0c4.1,1.6,6.2,6.2,4.7,10.3l-31.9,84.6c-1.6,4.1-6.2,6.2-10.3,4.7
				l0,0c-4.2-1.6-6.3-6.2-4.7-10.3L287.3,420.9z"/>
		</g>
	</g>
	<g class="st2">
		<g>
			<path class="st3" d="M460,378.2c-3.9-2.1-5.4-6.9-3.4-10.8l0,0c2-3.9,6.9-5.4,10.8-3.4l80.1,42.1c3.9,2.1,5.4,6.9,3.3,10.8l0,0
				c-2,4-6.9,5.4-10.8,3.4L460,378.2z"/>
		</g>
	</g>
	<g class="st2">
		<g>
			<path class="st3" d="M478.3,280.6c-4.4,0.5-8.4-2.6-8.9-7l0,0c-0.5-4.4,2.6-8.4,7-8.9l89.8-10.5c4.4-0.5,8.4,2.6,8.9,7l0,0
				c0.5,4.4-2.6,8.4-7,8.9L478.3,280.6z"/>
		</g>
	</g>
	<g class="st2">
		<g>
			<path class="st3" d="M419.4,506c1.5,4.2-0.7,8.7-4.9,10.2l0,0c-4.2,1.4-8.7-0.7-10.2-4.9L374.2,426c-1.5-4.2,0.7-8.7,4.9-10.2
				l0,0c4.2-1.5,8.7,0.7,10.2,4.9L419.4,506z"/>
		</g>
	</g>
	<g class="st2">
		<g>
			<path class="st3" d="M434.2,199.4c-2.7,3.5-7.7,4.1-11.2,1.4l0,0c-3.5-2.7-4.1-7.7-1.4-11.2l55.7-71.3c2.7-3.5,7.8-4.1,11.2-1.4
				l0,0c3.5,2.7,4.1,7.8,1.4,11.3L434.2,199.4z"/>
		</g>
	</g>
</g>
<g class="st1">
	<g class="st2">
		<g>
			<path class="st4" d="M718.6,292.4c0.1-0.9,0.1-1.8,0.1-2.7c0-16.8-13.6-30.4-30.4-30.4c-5.7,0-11.2,1.6-16,4.6
				c-3-17.3-18.8-30.3-37.4-29.2c-17.7,0.9-31.7,13.8-34,30.4c-3.2-1.1-6.5-1.7-9.8-1.7c-16.8,0-30.4,13.6-30.4,30.4
				c0,0.4,0,0.7,0,1.1c-8.5,2.3-20.7,7.2-20.7,24.6c0,12.9,10.7,24,25.3,24.7l152.7-0.7c11.3-3.7,19.7-15.4,19.1-28
				C736.7,304.6,729.2,295.6,718.6,292.4z"/>
		</g>
	</g>
	<g class="st2">
		<g>
			<path class="st5" d="M596.4,381.6L596.4,381.6c-10.1-17.9-10.9-42.8-11.5-34.1c-1.5,22.6-10.4,34.1-10.4,34.1l0,0
				c-0.7,1.4-1.2,3-1.2,4.6c0,6,5.4,10.9,12.1,10.9c6.7,0,13.1-4.3,13.1-10.3C598.6,385.2,597.1,383,596.4,381.6z"/>
		</g>
	</g>
	<g class="st2">
		<g>
			<path class="st6" d="M617,414.5L617,414.5c-4.4-9.2-4.8-21.9-5-17.4c-0.6,11.6-4.5,17.4-4.5,17.4l0,0c-0.3,0.7-0.5,1.5-0.5,2.4
				c0,3.1,2.4,5.5,5.3,5.5c2.9,0,5.7-2.2,5.7-5.2C618,416.3,617.3,415.2,617,414.5z"/>
		</g>
	</g>
	<g class="st2">
		<g>
			<path class="st5" d="M639.1,361.4L639.1,361.4c-7.4-13.2-7.2-22.6-8.8-16.4c-2.4,9.2-7.4,16.4-7.4,16.4l0,0
				c-0.5,1-0.9,2.2-0.9,3.4c0,4.4,4,8,8.9,8c4.9,0,9.7-3.1,9.7-7.6C640.7,364,639.6,362.4,639.1,361.4z"/>
		</g>
	</g>
	<g class="st2">
		<g>
			<path class="st5" d="M657.6,401.6L657.6,401.6c10.1-17.9,10.9-42.8,11.5-34.1c1.5,22.6,10.4,34.1,10.4,34.1l0,0
				c0.7,1.4,1.2,3,1.2,4.6c0,6-5.4,10.9-12.1,10.9c-6.7,0-13.1-4.3-13.1-10.3C655.4,405.2,656.9,403,657.6,401.6z"/>
		</g>
	</g>
	<g class="st2">
		<g>
			<path class="st6" d="M637,434.5L637,434.5c4.4-9.2,4.8-21.9,5-17.4c0.6,11.6,4.5,17.4,4.5,17.4l0,0c0.3,0.7,0.5,1.5,0.5,2.4
				c0,3.1-2.4,5.5-5.3,5.5c-2.9,0-5.7-2.2-5.7-5.2C636.1,436.3,636.7,435.2,637,434.5z"/>
		</g>
	</g>
	<g class="st2">
		<g>
			<path class="st5" d="M694.9,371.4L694.9,371.4c7.4-13.2,7.2-22.6,8.8-16.4c2.4,9.2,7.4,16.4,7.4,16.4l0,0c0.5,1,0.9,2.2,0.9,3.4
				c0,4.4-4,8-8.9,8c-4.9,0-9.7-3.1-9.7-7.6C693.3,374,694.4,372.4,694.9,371.4z"/>
		</g>
	</g>
</g>
<g>
	<g>
		<path class="st3" d="M238.5,185c3.4,4,9.5,4.4,13.5,0.9c4-3.5,4.3-9.5,0.9-13.4l-70.8-80.9c-3.5-4-9.5-4.3-13.5-0.9
			c-3.9,3.4-4.4,9.4-0.9,13.4L238.5,185z"/>
	</g>
	<g>
		<path class="st3" d="M359.9,138.2c5.3,0,9.5-4.3,9.5-9.6L368.6,21c-0.1-5.3-4.3-9.5-9.6-9.5c-5.2,0-9.5,4.3-9.4,9.6l0.8,107.6
			C350.4,134,354.7,138.3,359.9,138.2z"/>
	</g>
	<g>
		<path class="st3" d="M604.9,421l-95.2-50.1c-4.7-2.5-10.4-0.7-12.8,4c-2.5,4.6-0.7,10.4,4,12.8l95.2,50.1c4.7,2.4,10.4,0.7,12.9-4
			C611.3,429.3,609.5,423.5,604.9,421z"/>
	</g>
	<g>
		<path class="st3" d="M627.2,240.3l-106.8,12.5c-5.2,0.6-9,5.4-8.4,10.6c0.6,5.2,5.3,8.9,10.6,8.3l106.8-12.5
			c5.3-0.6,9-5.3,8.4-10.6C637.2,243.4,632.5,239.7,627.2,240.3z"/>
	</g>
	<g>
		<path class="st3" d="M470,175.1l66.2-84.8c3.3-4.2,2.5-10.1-1.6-13.4c-4.2-3.3-10.1-2.5-13.4,1.6L455,163.4
			c-3.2,4.1-2.5,10.1,1.6,13.4C460.8,180,466.8,179.2,470,175.1z"/>
	</g>
	<g>
		<path class="st3" d="M491.4,291.9c0-74.4-60.5-134.9-134.9-134.9c-60.5,0-111.9,40.1-128.9,95.1c0.9-0.1,1.7-0.2,2.6-0.2l4.5-0.1
			c0.2,0,0.5,0.1,0.7,0.1l-2.2,0c-0.9,0-1.7,0.2-2.6,0.2c-14.7,1.2-28.2,5.9-39.9,13.1l-101.2-8.3c-5.3-0.4-9.9,3.5-10.3,8.8
			c-0.5,5.2,3.4,9.8,8.7,10.3l82.7,6.7c-9.7,11.4-16.4,25.3-18.9,40.7c-7.2-2.4-14.6-3.6-22.2-3.6c-40.5,0-73.4,32.9-73.4,73.4
			c0,0.5,0,1.1,0,1.6C35.8,400.4,7.4,412.6,7.4,454c0,33.3,29.5,60.4,65.8,60.4l3.5-0.1c22.2-1.1,114.3,0.1,114.3,0.1l0-1.6
			c0.2,0,0.3,0,0.5,0.1l0.1,1.5l0-1.5c12.8,1.7,41.5,1.8,106.6,1.9c0,0,49.6,0.8,85.6,0.8c13.6,0,25.2-0.1,31.7-0.4
			c16.3-0.8,31.6-8.3,43.3-21.2c12.5-13.8,19.1-31.9,18.3-49.5c-1-20.8-13-38.9-30.9-49.3c-0.6-0.4-1.3-0.7-1.9-1
			C473,369.3,491.4,332.7,491.4,291.9z M457.5,445.4c0.6,12.4-4.3,25.6-13.2,35.5c-8.2,9-18.7,14.3-29.7,14.8
			c-23.3,1.2-116-0.4-116.2-0.4c-41.1-0.1-103.5-0.2-106.8-0.4l-0.2,4.3l-0.1-4.4c0,0-42.7-0.6-77.2-0.6c-16.5,0-31.1,0.1-38.4,0.5
			l-2.5,0c-25.5,0-46.2-18.3-46.2-40.9c0-27,14.1-35.4,42-42.3l7.1-2.8l0.5-7.1l-0.3-3.7c-0.2-1.6-0.5-3.2-0.5-4.8
			c0-29.7,24.2-53.8,53.8-53.8c9,0,17.8,2.4,26.1,7.1l14.8,8.3l-0.3-17c-0.4-21.9,10.4-41.1,27.1-53.3c2.8-2,4.5-2.9,6.8-4.5
			c6.7-3.7,14.1-6.3,22-7.7c2.6-0.4,5.3-0.8,8-0.9l3.5-0.1c2.8,0,5.6,0.2,8.3,0.5c32,3.8,57.2,29.3,58.8,61.3c0.1,1.2,0,2.4-0.2,5.7
			l-0.9,25.1l17.6-18c10.2-10.4,23.8-16.1,38.4-16.1c29.7,0,53.8,24.1,53.8,53.8c0,3.6-0.4,7.1-1,10.5c0,0.1,0,0.2,0,0.3l-2,9.8
			l9.8,1.7c2.6,0.5,5.1,1.1,7.5,1.9C444.9,413.7,456.7,428.3,457.5,445.4z M432.7,378.2c-2.8-37.9-34.4-67.9-73-67.9
			c-13.2,0-25.8,3.4-36.9,9.9c-6.9-35-35.7-62-71.7-67.4c-1-0.2-2-0.1-2.9-0.2c16.1-44.3,58.5-76,108.3-76
			c63.6,0,115.3,51.7,115.3,115.3C471.8,326.2,456.6,357,432.7,378.2z"/>
	</g>
</g>
<g class="st1">
	<g class="st2">
		<g>
			<path class="st3" d="M350.9,290.4c-9,0-16.3-7.3-16.3-16.3c0-9,7.3-16.3,16.3-16.3c9,0,16.3,7.3,16.3,16.3
				C367.2,283.1,359.9,290.4,350.9,290.4z M350.9,260.7c-7.4,0-13.4,6-13.4,13.4c0,7.4,6,13.4,13.4,13.4c7.4,0,13.4-6,13.4-13.4
				C364.3,266.8,358.3,260.7,350.9,260.7z"/>
		</g>
		<g>
			<g>
				<path class="st3" d="M338.2,260c0.4,0.5,0.4,1.2-0.1,1.6l0,0c-0.5,0.4-1.2,0.4-1.6-0.1l-8.4-9.6c-0.4-0.5-0.4-1.2,0.1-1.6l0,0
					c0.5-0.4,1.2-0.4,1.6,0.1L338.2,260z"/>
			</g>
		</g>
		<g>
			<g>
				<path class="st3" d="M352.1,254.8c0,0.6-0.5,1.1-1.1,1.1l0,0c-0.6,0-1.1-0.5-1.1-1.1l-0.1-12.8c0-0.6,0.5-1.1,1.1-1.1l0,0
					c0.6,0,1.1,0.5,1.1,1.1L352.1,254.8z"/>
			</g>
		</g>
		<g>
			<g>
				<path class="st3" d="M331.6,271.1c0.6,0.1,1.1,0.6,1,1.2l0,0c-0.1,0.6-0.6,1.1-1.2,1l-12.7-1c-0.6-0.1-1.1-0.6-1-1.2l0,0
					c0-0.6,0.6-1.1,1.2-1L331.6,271.1z"/>
			</g>
		</g>
		<g>
			<g>
				<path class="st3" d="M333.6,283.2c0.5-0.3,1.2-0.2,1.6,0.4l0,0c0.3,0.5,0.2,1.2-0.4,1.6l-8,5.1c-0.5,0.3-1.2,0.2-1.6-0.3l0,0
					c-0.3-0.5-0.2-1.2,0.4-1.6L333.6,283.2z"/>
			</g>
		</g>
		<g>
			<g>
				<path class="st3" d="M367.7,285.6c-0.6-0.3-0.8-1-0.5-1.5l0,0c0.3-0.6,1-0.8,1.5-0.5l11.3,5.9c0.6,0.3,0.8,1,0.5,1.5l0,0
					c-0.3,0.6-1,0.8-1.5,0.5L367.7,285.6z"/>
			</g>
		</g>
		<g>
			<g>
				<path class="st3" d="M370.3,271.8c-0.6,0.1-1.2-0.4-1.3-1l0,0c-0.1-0.6,0.4-1.2,1-1.3l12.7-1.5c0.6-0.1,1.2,0.4,1.3,1l0,0
					c0.1,0.6-0.4,1.2-1,1.3L370.3,271.8z"/>
			</g>
		</g>
		<g>
			<g>
				<path class="st3" d="M364,260.3c-0.4,0.5-1.1,0.6-1.6,0.2l0,0c-0.5-0.4-0.6-1.1-0.2-1.6l7.9-10.1c0.4-0.5,1.1-0.6,1.6-0.2l0,0
					c0.5,0.4,0.6,1.1,0.2,1.6L364,260.3z"/>
			</g>
		</g>
	</g>
	<g class="st2">
		<g>
			<path class="st4" d="M375.1,320.4c0.1-0.9,0.1-1.8,0.1-2.7c0-16.8-13.6-30.4-30.4-30.4c-5.7,0-11.2,1.6-16,4.6
				c-3-17.3-18.8-30.3-37.4-29.2c-17.7,0.9-31.7,13.8-34,30.4c-3.2-1.1-6.5-1.7-9.8-1.7c-16.8,0-30.4,13.6-30.4,30.4
				c0,0.4,0,0.7,0,1.1c-8.5,2.3-20.7,7.2-20.7,24.6c0,12.9,10.7,24,25.3,24.7l152.7-0.7c11.3-3.7,19.7-15.4,19.1-28
				C393.2,332.7,385.7,323.6,375.1,320.4z"/>
		</g>
	</g>
</g>
</svg>
