<?xml version="1.0" encoding="utf-8"?>
<!-- Generator: Adobe Illustrator 24.3.0, SVG Export Plug-In . SVG Version: 6.00 Build 0)  -->
<svg version="1.1" id="Layer_1" xmlns="http://www.w3.org/2000/svg" xmlns:xlink="http://www.w3.org/1999/xlink" x="0px" y="0px"
	 viewBox="0 0 500 500" style="enable-background:new 0 0 500 500;" xml:space="preserve">
<style type="text/css">
	.st0{fill:#F7E4D2;}
	.st1{fill:#EFBEA3;}
	.st2{fill:#F2F1F0;}
	.st3{fill:#444342;}
	.st4{fill:#D8CCC0;}
	.st5{fill:#EAE9E8;}
	.st6{fill:#495D5C;}
	.st7{fill:#030106;}
	.st8{fill:#EEA0AD;}
	.st9{fill:#603225;}
	.st10{fill:#E58FA2;}
	.st11{fill:#204549;}
	.st12{fill:#BCEDDE;}
	.st13{fill:#040000;}
	.st14{fill:#F43A2E;}
	.st15{fill:#D0F4EA;}
	.st16{fill:#2C4F55;}
	.st17{fill:#DD931D;}
	.st18{fill:#F9E48A;}
	.st19{fill:#FAEEBC;}
	.st20{fill:#FFFFFF;}
	.st21{fill:#E4F9F1;}
</style>
<g>
	<path class="st0" d="M308.7,222.7c4.7-3.5,11.1-5.6,14.7-10.4c2.5-3.3,3-7.4,1.4-11.2c-3.3-7.8-16.7-12.7-21.7-3.8
		c-2.4,4.2-2.1,9.3-3.6,13.8c-3.8,11-7.5,1-8.8-5.6c-1.6-7.9-3.7-19.5-12-21.9c-8.6-2.6-17.3,4.8-14.4,15.4
		c4,14.6,19.1,21.7,23.3,36.4c1.6,5.6,4.7,8.4,9.7,6.2c0.5-0.2,0.8-0.5,1.1-0.7C298.1,232.6,302.8,227,308.7,222.7z"/>
	<path class="st0" d="M143.1,245.5c-2-1-4.2-1.3-6.4-0.8c-7.4,1.7-12.3,8.8-15.5,15.2c-0.7,1.5-2.1,4.8-3.6,2.2
		c-0.7-1.2-0.5-4-0.1-5.3c2.8-8.2,9.1-15.9,9.4-24.8c0.2-7.2-5.7-14.2-13.3-11.1c-6.3,2.5-8.1,9.6-7.6,15.7
		c0.3,3.9,2.3,7.5,1.9,11.5c-0.3,2.3-2.8,1.5-3.9,0.3c-2-2-2.7-5.7-3.5-8.3c-1.1-3.2-2.3-6.4-4.4-9c-2-2.7-4.9-4.8-8.2-5.4
		s-7,0.7-8.8,3.5c-1.2,1.8-1.5,4.2-1.4,6.3c0.3,5.2,2.9,10,6.2,13.9c3.9,4.5,9.4,7.4,13.1,12c0.8,0.9,0.4,1.6-0.8,1.3
		c-2.3-0.5-4.3-2.2-6.5-2.9c-2.4-0.8-5-1.1-7.6-0.8c-2.6,0.3-5.2,1.1-7.1,2.8c-2,1.7-3.3,4.3-3,6.9c0.4,3.5,3.4,6.2,6.7,7.4
		c3.3,1.2,6.9,1.3,10.3,1.7c5.4,0.6,10.7,2.1,15.4,4.9c2.3,1.4,4.6,3.2,7.3,3.6c3.1,0.4,6.2-1.3,8.5-3.4c3.6-3.3,6.6-7.5,10.4-10.6
		c4.2-3.4,9.1-5.8,13-9.6C149.1,257.6,150.7,249.2,143.1,245.5z"/>
	<path class="st1" d="M58.1,344.2c7.8,1.9,16.1,2.5,24,2.6c60.3,0.8,120.7-0.8,181-0.8c33.7,0,67.3,0.4,101,0.6
		c17.1,0.1,34.2,0.1,51.3,0c14.1-0.1,31.8,2.2,45.2-2.5c15.2-5.4,18.6-20.2,10.6-33.3c-9-14.7-26.2-20.9-42.5-23.4
		c-21.1-3.1-43.7-2.7-58.1-21.1c-6.3-8-10.2-18.3-18.9-23.6c-16.1-9.8-37.3-0.7-54.8-7.3c-29.6-11.2-42.5-45.7-75.7-51.4
		c-17.7-3-33.9,3.8-45,17.8c-12.4,15.7-16,35.5-24.8,53.1c-7.4,14.8-22.5,28.8-40.2,24.7c-17.2-3.9-32.4-15.4-50.7-13.3
		c-13.7,1.5-27.4,10.4-34.1,22.5c-8.5,15.4-2.3,32.3,9.6,43.9C42.1,338.6,49.9,342.2,58.1,344.2z"/>
</g>
<g>
	<path class="st2" d="M171.8,372.3c-6.6-0.1-13.5,0.5-19.7,0.8c-10.4,0.6-20.9,1.3-31.4,1.6c-13.2,0.3-26.7-0.6-39.8-1
		c-3.6-0.1-7.5-0.2-10.7,0.9s-5.3,3.7-3.4,5.5s6.1,1.9,9.6,2.3c4.9,0.4,9.5,1.6,14.4,2.1c10.2,1,20.2-1,30.4-1.4
		c10.8-0.4,21.7,0.7,32.5,0.9c9.3,0.2,20.1,0.3,28.5-2.4c3.8-1.2,6.2-3.3,4.6-5.9C184.7,372.5,176.7,372.4,171.8,372.3z"/>
	<g>
		<g>
			<path class="st3" d="M110.7,319c-0.1,0-0.2,0-0.3-0.1c-0.2-0.2-0.3-0.5-0.1-0.7c10.3-13.1,26.7-18.2,38.5-20.2
				c10.3-1.7,21-1.9,31.3-2c4.2-0.1,8.6-0.1,12.9-0.3c9.8-0.4,19.7-1.4,29.5-2.9c25.4-4,44.7-11.6,59-23.1
				c6.2-5,12.1-11.3,17.5-18.6c5.3-7.3,9.9-15.1,13.6-23.3c0.6-1.3,1.2-2.7,1.7-4c2.4-5.8,5-11.9,10.4-15.6c1.9-1.3,4.2-2.1,6.6-2.3
				c6.5-0.5,12.7,2.3,17.8,4.6l0.6,0.3c5.3,2.3,11.2,5,17,3.4c0.3-0.1,0.5,0.1,0.6,0.4c0.1,0.3-0.1,0.5-0.4,0.6
				c-6.2,1.7-12.3-1.1-17.7-3.5l-0.6-0.3c-5.2-2.3-11.1-4.9-17.3-4.5c-2.2,0.2-4.3,0.9-6.1,2.1c-5.2,3.5-7.6,9.4-10,15.1
				c-0.6,1.3-1.1,2.7-1.7,4c-3.8,8.3-8.4,16.2-13.7,23.5c-5.4,7.4-11.3,13.7-17.6,18.8c-14.5,11.6-33.9,19.2-59.5,23.3
				c-9.8,1.6-19.7,2.5-29.6,2.9c-4.3,0.2-8.7,0.2-12.9,0.3c-10.3,0.1-20.9,0.3-31.2,2c-11.7,2-27.8,7-37.9,19.8
				C111,318.9,110.8,319,110.7,319z"/>
		</g>
		<g>
			<path class="st4" d="M150.6,357.1c-0.2,6-2.8,11.7-5.7,16.9c-0.6,1-1.2,2.1-1.4,3.2c-0.1,0.4-0.1,0.9,0.1,1.3
				c0.3,0.6,1.1,0.7,1.8,0.5c0.6-0.2,1.1-0.7,1.6-1.2c1.4-1.6,2.5-3.4,3.7-5.1c2.5-3.5,5.7-6.5,8.3-9.9s4.7-7.5,4.6-11.8
				c-0.1-2.2-0.8-4.5-2.4-5.9c-1.1-1-2.6-1.5-4.1-1.8s-3.2-0.5-4.6,0.1c-2.4,1-2.4,2.8-2.2,4.9C150.4,351.3,150.7,354.3,150.6,357.1
				z"/>
			<path class="st4" d="M106.5,356.4c0.9,1.6,1.7,3.3,2.7,4.8c0.8,1.2,1.7,2.3,2.7,3.5c3.1,4,5.9,8.2,8.3,12.7
				c0.4,0.7,0.8,1.5,1.4,2c0.6,0.6,1.5,0.9,2.3,0.7c1-0.3,1.5-1.4,1.5-2.4s-0.5-2-1-2.9c-3.7-7.2-7-14.7-8.8-22.6
				c-0.5-2.1-1-4.3-2.6-5.6c-1.4-1.2-3.1-1.1-4.8-1.5c-1.6-0.4-2.9-0.7-4.5,0c-2.2,0.9-2.6,2.8-1.4,4.5
				C103.6,351.8,105.1,354,106.5,356.4z"/>
			<path class="st5" d="M173.4,320.9c2.6-4.5,4.5-9.3,5.9-14.3c0.7-2.5,1.2-5.1,1.5-7.7c0.3-2.1,1-4.4,0.4-6.4
				c-0.3-1.1-1.5-0.8-2.2-0.1c-0.4,0.4-0.6,1-0.7,1.5c-2.1,5.6-3.5,11.6-6.4,16.8c-4,7.1-10.1,10.9-18.1,12
				c-6.5,0.9-13.1,1-19.6,0.6c-3.3-0.2-6.6-0.3-9.8-0.8c-2.9-0.4-5.9-0.3-8.7-1.1c-3.7-0.9-6-3-8.4-5.8c-2.1-2.4-4.3-4.8-7.1-6.3
				c-2.8-1.5-6.4-1.9-9.2-0.4c-4.2,2.4-6,8.8-10.9,9c-0.6,0-1.2-0.1-1.8,0.1c-2.1,0.6-2.1,3.7-0.9,5.5c1.1,1.7,2.9,3,4.9,3.6
				c3.3,1,6.9,0,10.1,1.2c11.8,4.3,1.5,20-2.8,25.9c-4.2,5.8-8.5,11.7-13.7,16.6c-1.5,1.4-2.9,2.7-3.8,4.4c-0.3,0.5-0.5,1.2-0.3,1.7
				c1,2.1,4.4,0.8,5.8,0c1.8-1.1,3.2-2.6,4.8-4c2.4-2.1,4.8-4.1,7.2-6.2c5-4.4,10.2-8.9,16-12.2c3-1.7,6.2-3.5,9.7-4
				c3.7-0.5,7.5,0,11.2,0c5.2,0.1,10.4-0.1,15.5-0.2c6.4-0.2,11.9-1,17.9,2.1c7.4,3.8,12.3,11.7,13.8,19.8c0.4,2.1,0.1,4.3,1,6.3
				c0.9,1.9,3.7,2.7,4.8,0.5c0.5-1.1,0.4-2.4,0.2-3.7c-0.7-4.5-1.9-8.9-2.9-13.3c-0.8-3.5-2.2-6.8-3.1-10.2
				c-0.9-3.3-1.5-6.8-3.6-9.6c-1.6-2.2-3.2-3.8-2.9-6.7c0.2-1.7,0.7-3.4,1.3-5.1C169.6,326.9,171.7,323.9,173.4,320.9z"/>
			<path class="st6" d="M113.1,319.5c-0.2-0.2-0.5-0.4-0.8-0.6c-0.8-0.5-1.5-1-2.3-1.4c-0.3-0.2-0.7-0.5-1.1-0.4
				c-0.3,0.1-0.8,0.9-1,1.2c-0.7,0.8-1.4,1.7-2.1,2.5c-1.4,1.6-2.9,3.1-4.5,4.5c-1.5,1.3-3,2.6-4.7,3.7c-0.5,0.3-1.1,0.7-1.2,1.3
				c-0.1,0.6,0.3,1,0.5,1.5c0.3,0.5,0.6,1.1,0.8,1.7c0.3,1,0.9,1.7,2,1.1c5.7-2.8,10.1-7.6,14-12.6c0.4-0.6,0.9-1.2,0.7-1.9
				C113.4,319.8,113.3,319.6,113.1,319.5z"/>
			<path class="st7" d="M107,312.6c-0.5-1-1.2-1.9-2.2-2.7c-0.9-0.7-2-1.3-3.1-1.7c-2.3-0.9-4.8-1.3-7.3-1c-0.5,0.1-1.4,0.2-1.1,0.9
				c0.3,0.9,1.5,1.1,2.1,1.6c1.6,1.4,1.5,4,1.5,5.9c-0.1,2.3-0.5,4.7-0.3,7c0.1,1.6,0.5,3.3,1.7,4.5c0.7,0.7,1.7,1.2,2.6,1.5
				c1.8,0.6,4.1,0.8,5.6-0.5c1.7-1.6,1.5-4.8,1.6-6.9c0-1.8,0-3.6-0.2-5.4C107.7,314.6,107.4,313.5,107,312.6z"/>
		</g>
	</g>
</g>
<g>
	<path class="st2" d="M442.8,378.2c-5.9-2.1-14-1.5-20-1.5c-22.8,0.1-45.6,3-68.4,3c-10.3,0-20.6-0.5-30.9,0.5
		c-5.3,0.5-10.9,1.4-15.8,3c-2,0.7-5,1.7-5.7,3.5c-2.6,6.8,18.2,5.7,21.9,5.6c11.8-0.3,23.4-1.8,35.2-2c22.3-0.4,44.5,3.8,66.7,2.4
		c5.4-0.3,11-0.7,16-2.6c4.8-1.8,9.9-6.2,4.7-10.1C445.4,379.3,444.2,378.7,442.8,378.2z"/>
	<g>
		<path class="st8" d="M404.4,235.8c-1,2.6-2.1,5.2-3.3,7.8c-2.5,5.4-5.2,10.6-8,15.8c-4.7,8.4-9.9,16.5-15.5,24.2
			s-12.4,14.6-17.2,22.8c-2.2,3.7-1.5,8.3-1.4,12.4c0.1,2.1,0,4.2-0.1,6.2c-1.1,13.1-6.2,25.3-12.2,36.7c-2.2,4.2-4.5,8.5-6.6,12.8
			c-0.2,0.5-0.5,1.1-0.7,1.7c-0.2,0.4-0.3,0.8-0.5,1.2c-0.2,0.5-0.5,0.9-0.6,1.4s-0.1,1-0.1,1.5l-0.1,0.8l-0.4,4.6l-22.2-1.2v-0.9
			c1.7-0.6,3.5-1.1,5.2-1.6c0.3-0.1,0.6-0.2,0.9-0.2c2.9-0.8,5.8-1.7,8.6-3c0.3-0.2,0.6-0.4,0.7-0.7c0.5-2,0.9-4,1.4-6.1
			c0.4-2.1,0.9-4.2,1.3-6.4c0.4-2.1,0.8-4.2,1.3-6.4c0.3-1.7,0.7-3.4,1-5.2c0.2-0.9,0.4-1.8,0.6-2.8c0.9-4.4,1.9-8.8,2.8-13.2
			c2.9-13.7,5.9-27.3,9.8-40.7c3.5-12.6,8.6-24.8,13.7-36.8c4.4-10.3,10-20.2,12.9-31.1c0-0.1,0.2-0.7,0.4-1.4l30,1.6
			C406.9,231.5,405.1,234,404.4,235.8z"/>
		<path class="st9" d="M338.1,381l-0.4,4.6l-22.2-1.2v-0.9c1.7-0.6,3.5-1.1,5.2-1.6c0.3-0.1,0.6-0.2,0.9-0.2
			c0.1,0.1,0.3,0.1,0.4,0.2c3,1.3,6.5,1.5,9.8,1.1c1.5-0.2,3.1-0.4,4.5-0.9C336.6,381.8,337.3,381.5,338.1,381z"/>
	</g>
	<path class="st10" d="M434.6,376.2c-1.5,1.5-3,3-4.5,4.5c-1.9,1.9-3.8,3.7-5.7,5.6c-0.2,0.2-0.5,0.6-0.7,0.7s-0.5,0-0.8,0
		c-0.7-0.1-1.3-0.1-2-0.2s-1.3-0.2-2-0.2c-0.2,0-1.9-0.1-1.9-0.2c-0.1-0.2,0-0.3,0.1-0.5c0.1-0.1,0.3-0.2,0.5-0.2
		c0.7-0.2,1.3-0.4,2-0.6c0.5-0.1,0.9-0.3,1.3-0.6c0.4-0.2,0.4-0.6,0.5-1s0.2-0.8,0.4-1.3c0.2-0.5,0.3-1.1,0.5-1.7
		c0.6-2,0.9-4.1,1.4-6.1c0-0.2,0.1-0.4,0.2-0.6c0-0.1,0-0.3-0.1-0.4c-0.2-0.7-0.5-1.3-0.7-1.9c-1.1-2.9-2.3-5.7-3.5-8.6
		c-1.4-3.3-2.8-6.5-4.2-9.8c-0.8-1.9-1.6-3.8-2.4-5.7c-1.7-4-3.3-8.1-5-12.1c-5.2-12.6-10.3-25.2-14.6-38.1
		c-0.4-1.2-0.8-2.5-1.2-3.7c-3-9.7-5.2-19.5-7.2-29.5c-1.4-6.9-2.3-13.9-3.9-20.8c-0.6-2.4-1.3-4.8-2.1-7.2
		c-0.8-2.2-1.9-4.2-2.6-6.4c-2.7-7.6-4.2-15.8-4.1-23.9c0-2.6,0.2-5.1,0.3-7.7c0.1-2.5-0.1-5,0.1-7.5c0.1-1.4,0.1-2.7-0.2-4
		c-0.3-1.3-1-2.5-1.6-3.7c-2.5-4.7-4.7-10.3-2.9-15.3c0.8-2,2.1-3.7,3.5-5.2c1.6-1.7,3.3-3.3,5-4.8c2.7-2.4,6.8-5.3,6.5-9.4
		c-0.2-2.5-1.4-4.9-2.4-7.2c-0.4-0.9-0.9-1.7-1.2-2.6c-2.1,0.5-4.3,0.9-6.5,1.1c-0.5,0-1,0.1-1.4-0.2s-0.6-0.8-0.8-1.2
		c-0.4-0.8-0.8-1.6-1-2.4c-0.6-1.7-0.9-3.4-1-5.2c0-0.3,0-0.5-0.2-0.7c-0.1-0.1-0.3-0.2-0.5-0.2c-0.6-0.1-1.2-0.2-1.8-0.3
		c-0.4-0.1-0.8-0.2-1-0.5c-0.3-0.5,0.1-1.1,0.4-1.5c1.1-1.4,2.4-2.6,3.5-4c1.6-2.2,2.6-4.7,3.5-7.2c0.4-1.2,1.1-2.3,1.7-3.4
		c0.6-1.2,1.3-2.3,2-3.4c0.4-0.6,0.6-1.2,1.4-1.4c0.8-0.3,1.7-0.5,2.5-0.6c3.6-0.6,7.6,0.5,10.7,2.2c4.1,2.3,6.6,6.6,7.3,11.3
		c0.3,2.1,0.2,4.4-0.4,6.5c-0.6,2.1-1.6,3.9-2.6,5.8c-1.3,2.5-2.4,5.5-1.5,8.3c0.9,2.7,2.6,4.9,4.3,7.2c3.6,4.7,6.9,10,7.1,16.2
		c0.2,6.3-2,12.3-4.1,18.1c-1.3,3.7-3.3,7.1-4.1,11c-0.7,3.6,0.2,7.4,1.8,10.6c2.1,4.1,5.3,7.5,7.9,11.3c5.5,7.9,5.8,17.7,5.4,27
		c-0.4,10.1-1.3,20.1-2,30.2c-0.5,8.1-2.6,16.1-2.7,24.3c0,4.6,3.3,8.3,5.9,11.7c5.1,6.7,8.3,14.5,10.6,22.6
		c0.8,2.7,1.4,5.4,1.9,8.2c0.6,3.3,1.2,6.7,1.6,10.1c0.4,2.6,0.9,5.2,1.3,7.8c0.1,0.8,0.2,1.6,0.4,2.4c0.2,1.7,0.5,3.4,0.8,5
		c0.2,1.3,0.3,2.9,0.9,4.2c0.1,0.2,0.2,0.4,0.3,0.7c0.3,0.6,0.6,1.2,0.9,1.7c0,0.1,0.1,0.1,0.1,0.2c0.4,0.8,0.9,1.6,1.3,2.3
		c0.3,0.6,0.6,1.1,1,1.7C434.3,375.5,434.7,376.1,434.6,376.2z"/>
	<path class="st11" d="M413.3,229.1c-1-3.5-2.9-6.3-5.3-9c-2.2-2.5-5-2.3-8-2.1c-4.9,0.4-10.1,1.1-14.7,3.2
		c-3.7,1.7-5.4,4.2-5.5,8.3c-0.1,4.5,0.9,8.9,1.6,13.2c1.1,6.8,1.7,13.7,1.7,20.5c0,3.2,2.7,3.6,5.2,4c3.9,0.6,7.8,1.3,11.7,2.1
		c1.9,0.4,3.9,0.8,5.8,1.3c1.4,0.3,2.9,0.8,4.4,0.9c0.9,0.1,1.7-0.2,2.1-1.1c0.3-0.6,0.2-1.4,0.2-2c-0.6-12.7,4-25.8,1-38.4
		C413.4,229.6,413.3,229.3,413.3,229.1z"/>
	<path class="st10" d="M374.9,177.5c-0.7-1.2-2.7-2.1-4.1-2s-2.5,1.1-3.4,2c-1.1,1-2,2.1-3.2,3c-2.8,2.3-5.8,4.4-9,6.2
		c-2.4,1.3-4.8,2.5-7.2,3.8c-3.2,1.7-6.4,3.4-9.7,4.9c-1,0.5-2,0.9-3,1.4c-2.5,1.1-4.9,2.1-7.4,3.2c-2.1,1-4.4,2-6,3.9
		c-1.7,2-1.8,4.9-2,7.4c0,0.4-0.1,0.8,0,1.2c0.2,0.6,0.8,0.3,1.3,0.2c0.9-0.2,1.9-0.2,2.9-0.3c0.8-0.2,1.6-0.5,2.4-0.9
		c1.3-0.7,2.4-1.6,3.3-2.7c0.4-0.5,0.9-1.1,1.2-1.8c0.3-0.7,0.4-1.5,0.8-2.1c0.8-1.5,2.5-2.1,4-2.6c8.9-3,17.8-5.9,26.7-8.9
		c1.5-0.5,3.1-1,4.4-1.9c1.4-0.9,2.5-2.2,3.5-3.5c1.7-2,3.4-4.1,4.3-6.5C375.3,180,375.5,178.6,374.9,177.5z"/>
	<path class="st12" d="M390.1,168.3c0.3-2.8,0.1-5.6-0.7-8.5c-1.2-4.5-6.6-6.6-10.8-4.8c-3.8,1.6-4,6.1-5.6,9.3
		c-1.7,3.3-3.9,6.3-6.6,8.7c-4.6,4.2-10.6,4.9-16.6,6.2c-8.1,1.8-16.8,6.2-17.8,15.3c-0.7,0.4-1.3,0.8-1.7,1.4l-0.1,0.1
		c-0.9,1.3-1.5,2.8-1.3,4.5c0.2,1.4,1,3.1,2.2,4c1,0.8,2.3,1.3,3.6,1.3c1.7,2.5,4.1,4.6,7,5.9c7,3.1,14.9,1.5,21.3-2.4
		c13.2-7.9,22.8-21.9,26.3-36.8C389.8,171.1,390,169.7,390.1,168.3z"/>
	<path class="st13" d="M411.2,106c0-5.8-4.7-10.6-10.6-10.6S390,100.1,390,106c0,0.2,0,0.4,0,0.6c-0.1,0-0.2-0.1-0.3-0.1
		c-2.8-0.7-5.8-0.7-8.6,0.1l0,0c-6.5,0.4-11.7,5.8-11.8,12.4h10.5c0.6,0.7,1.3,1.4,2.1,1.9c0.1,0.1,0.3,0.2,0.5,0.2
		c0.5,0,0.8-0.6,0.9-1.1c0.3-0.8,0.6-1.6,1.1-2.3c0.6-0.6,1.5-1.1,2.3-0.9c1.2,0.2,1.9,1.5,2.1,2.7c0.6,3.2-1.2,6.8-4.2,8.1
		c0,2.5,1.2,4.8,2.9,6.7c1.7,1.8,3.7,3.3,5.8,4.6c-0.4-0.3,1.4-3.3,1.6-3.6c2.2-3.5,4.6-6.3,5.5-10.4c0.6-2.8,0.7-5.6-0.1-8.2
		c0.1,0,0.1,0,0.2,0C406.4,116.5,411.2,111.8,411.2,106z"/>
	<path class="st14" d="M399.7,129.2c0-0.6-0.4-1-1-1.5c-0.9-0.7-1.7-1.6-2.6-2.4c-1-0.9-1.9-1.8-2.8-2.7c-4-4.4-6.5-10-8.7-15.4
		c-0.2-0.4-0.2-0.9-0.6-1.1c-0.2-0.1-0.4-0.2-0.6-0.2c-1-0.3-2.2-0.3-3.3,0c-0.6,0.2-2.3,0.7-2.2,1.5c0,0.6,0.4,1.3,0.6,1.9
		c0.3,0.7,0.5,1.4,0.8,2.1c2.2,5.8,5.3,11.3,9.4,16.1c2,2.4,4.2,4.5,6.6,6.5C397.7,135.8,399.8,131,399.7,129.2z"/>
	<path class="st15" d="M405.9,165.3c-0.1-4.4-1.2-8.7-3.3-12.6c-2.3-4.4-5.7-8.2-8-12.6c-4.5,1.3-9,2.3-13.6,3.1
		c0.7,1,0.9,2.4,0.9,3.7c0,2-1,3.9-2.4,5.4c-1.3,1.5-3,2.7-4.6,4c-4.3,3.7-9.9,8.5-9.7,14.7c0.1,3.1,0.8,6.1,2.1,8.9
		c1.1,2.3,2.6,4.5,3.2,7c0.7,2.7,0.7,5.6,0.8,8.4c0,1.4,0,2.8,0,4.3c0,0.5-0.1,4.2-0.5,4.4c2.5-0.8,5-1.4,7.6-1.8
		c7-1.1,14-1.8,21-2.2c-1-5.3,0.9-10.7,2.6-15.8C404,178.1,406.1,171.8,405.9,165.3z"/>
	<path class="st16" d="M411.7,228.2c-0.5-3.7-1.6-7.3-3.1-10.7c-0.8-1.7-1.7-3.4-2.6-5c-0.8-1.3-1.4-2.8-2.5-3.9
		c-1.1-1.1-2.4,0.1-3.6,0.6c-1.3,0.6-2.6,1.1-3.9,1.6c-7.1,2.7-14.4,3.6-21.9,4.6c-0.2,0-0.4,0.1-0.6,0.1c-1.6,0.3-1,1.7-0.8,2.9
		c0.5,3.6,1.1,7.3,0.7,10.9c-0.4,3.6-1.6,7.1-3,10.5c-1.3,3.3-3.1,6.6-4.8,9.9c-1.3,2.6-4.7,7.2-3.8,10.2c0.4,1.2,1.4,2,2.3,2.7
		c3.3,2.5,6.6,5.1,10.2,7.1c1.8,1,3.8,1.7,5.7,2.3c1.7,0.5,3.7,1.7,5.5,1.3c1.6-0.3,2.6-2.7,3.5-3.8c3.7-4.6,8-8.6,11.9-13
		C407.9,248.5,413.2,239.2,411.7,228.2z"/>
	<path class="st9" d="M434.6,376.2c-1.5,1.5-3,3-4.5,4.5c-1.9,1.9-3.8,3.7-5.7,5.6c-0.2,0.2-0.5,0.6-0.7,0.7s-0.5,0-0.8,0
		c-0.7-0.1-1.3-0.1-2-0.2s-1.3-0.2-2-0.2c-0.2,0-1.9-0.1-1.9-0.2c-0.1-0.2,0-0.3,0.1-0.5c0.1-0.1,0.3-0.2,0.5-0.2
		c0.7-0.2,1.3-0.4,2-0.6c0.5-0.1,0.9-0.3,1.3-0.6c0.4-0.2,0.4-0.6,0.5-1s0.2-0.8,0.4-1.3c0.3,0.2,0.7,0.4,1.1,0.3
		c0.2,0,0.4-0.1,0.6-0.2c2.2-1.1,3.8-3.1,5.2-5c1.3-1.8,2.4-3.8,3.2-5.9c0.4,0.8,0.9,1.6,1.3,2.3c0.3,0.6,0.6,1.1,1,1.7
		C434.3,375.5,434.7,376.1,434.6,376.2z"/>
	<g>
		<path class="st17" d="M410.3,244.1c-0.5,0-0.9-0.4-1-0.9c-2.3-16.5-10-31.5-17.5-46c-3.2-6.2-6.5-12.6-9.4-19.1l-0.5-1
			c-2.2-4.9-4.9-11-3.2-16.6c1.9-6.4,9.4-8.4,15.5-6.8c8.9,2.5,15.8,9.7,22,16l0.1,0.1c8.8,9.1,16.1,18.3,21.8,27.3
			c5.8,9.2,9.8,19.2,13.7,28.8c0.6,1.4,1.1,2.9,1.7,4.3c0.2,0.5,0,1.1-0.6,1.3c-0.5,0.2-1.1,0-1.3-0.6c-0.6-1.4-1.2-2.9-1.7-4.3
			c-4-10-7.8-19.5-13.5-28.5c-5.6-8.9-12.8-17.9-21.5-26.9l-0.1-0.1c-5.9-6.2-12.7-13.1-21-15.5c-5.2-1.4-11.4,0.2-13,5.4
			c-1.5,4.9,1,10.3,3.1,15.2l0.5,1c2.8,6.4,6.1,12.8,9.3,19c7.6,14.6,15.4,29.8,17.7,46.6c0.1,0.5-0.3,1.1-0.9,1.1
			C410.4,244.1,410.4,244.1,410.3,244.1z"/>
	</g>
	<g>
		<path class="st18" d="M406.3,243l4.5,13.1c3.3,9.5,13.7,14.7,23.2,11.4l14.3-4.9c9.5-3.3,14.7-13.7,11.4-23.2l-4.5-13.1L406.3,243
			z"/>
		<path class="st19" d="M408.8,241.3l4,11.6c2.9,8.5,12.2,13,20.6,10.1l12.7-4.3c8.5-2.9,13-12.2,10.1-20.6l-4-11.6L408.8,241.3z"/>
		<path class="st20" d="M441,256.6c0.5,1.4-0.3,2.8-1.6,3.3c-1.4,0.5-2.8-0.3-3.3-1.6c-0.5-1.4,0.3-2.8,1.6-3.3
			S440.5,255.2,441,256.6z"/>
	</g>
	<g>
		<path class="st10" d="M439.3,246.3c-0.1-0.1-0.2-0.2-0.3-0.3c-1.1-0.9-2.2-1.9-3.1-3c-1-1.2-0.5-2.8-0.2-4.2
			c0.4-1.9,0.9-3.8,0.9-5.7c-0.1-2-1.1-3.5-2.4-4.9c0.3-0.3-3.2-7.3-3.5-8.2c-3.6-8.4-6.4-17-11.5-24.6c-0.5-0.7-1-1.5-1.5-2.2
			c-2.6-4-5.3-7.9-8-11.8c-2.7-3.8-5.5-7.6-8.5-11.2c-2.7-3.4-5.5-6.9-8.8-9.9c-1.4-1.3-3-2.5-4.7-3.4c-1.5-0.8-3.4-1.5-4.9-0.6
			c-1.8,1-2,3.6-1.7,5.7c1.1,6.4,5.3,11.3,9.4,16c2.4,2.7,5.2,5,7.8,7.4c3.1,2.9,6.1,5.8,9,8.8c1.8,1.9,3.8,3.6,5.2,5.8
			c1.6,2.4,2.2,5.2,3.2,7.9c2.8,7,7.1,13.1,10.6,19.7c0.7,1.3,1.6,2.9,1.6,4.4c0.1,3,0.2,6,0.3,9c0.1,2.6,2.1,4.5,4.4,5.2
			c1.6,0.5,3.1,0.9,4.7,1.2c0.4,0.1,0.9,0.2,1.3,0C439.2,247.2,439.5,246.7,439.3,246.3z"/>
		<path class="st21" d="M438.2,196.3c-2.8-7.1-7.4-13.7-11.7-19.5c-5.3-7.2-11.9-13.6-19.5-18.3c-6.5-4-18.2-10.1-25.3-4.4
			c-5.2,4.2-3.1,11.3-0.4,16.3c2.4,4.6,6,8.5,9.3,12.5c3.7,4.5,7.3,9.1,10.2,14.2c3,5.4,4.6,11,6.2,16.9c0.9,3.5,2.1,7,4.3,9.9
			c3.2,4.3,8.4,6.2,13.4,5.6c0.7,0.9,1.7,1.6,2.8,1.9c1.5,0.4,3.2,0.4,4.6-0.4c1.3-0.8,2.5-2,2.9-3.5v-0.1c0.2-0.9,0.3-1.8,0.2-2.7
			c0-0.1,0-0.1,0-0.2v-0.1c0-0.1,0-0.3-0.1-0.4v-0.1c0,0,0,0,0-0.1c4-4.4,6.3-10.6,5.9-16.5C440.6,203.6,439.6,199.9,438.2,196.3z"
			/>
	</g>
</g>
</svg>
